<svg width="900" height="220" viewBox="0 0 900 220" role="img" xmlns="http://www.w3.org/2000/svg">

<rect width="900" height="220" fill="#0d1117" rx="10"/>

<rect x="0" y="0" width="900" height="32" fill="#161b22" rx="10"/>
<rect x="0" y="20" width="900" height="12" fill="#161b22"/>
<circle cx="20" cy="16" r="6" fill="#ff5f57"/>
<circle cx="40" cy="16" r="6" fill="#febc2e"/>
<circle cx="60" cy="16" r="6" fill="#28c840"/>
<text x="420" y="21" font-family="monospace" font-size="12" fill="#8b949e" text-anchor="middle">harsh@dev ~ terminal</text>

<text x="30" y="65" font-family="monospace" font-size="13" fill="#8b949e">visitor@github:~$</text>
<text x="178" y="65" font-family="monospace" font-size="13" fill="#00C9A7"> whoami</text>

<text x="30" y="90" font-family="monospace" font-size="22" font-weight="bold" fill="#ffffff">Harsh Narayan</text>

<text x="30" y="118" font-family="monospace" font-size="13" fill="#8b949e">visitor@github:~$</text>
<text x="178" y="118" font-family="monospace" font-size="13" fill="#00C9A7"> cat roles.txt</text>

<text x="30" y="140" font-family="monospace" font-size="12" fill="#58a6ff">Backend Engineer</text>
<text x="175" y="140" font-family="monospace" font-size="12" fill="#8b949e"> · </text>
<text x="193" y="140" font-family="monospace" font-size="12" fill="#e6edf3">Oracle · Ex-Razorpay · NIT Silchar</text>

<text x="30" y="165" font-family="monospace" font-size="13" fill="#8b949e">visitor@github:~$</text>
<text x="178" y="165" font-family="monospace" font-size="13" fill="#00C9A7"> cat stack.txt</text>

<text x="30" y="187" font-family="monospace" font-size="12" fill="#e6edf3">Java · Spring Boot · Kafka · Redis · PostgreSQL · Docker</text>

<rect x="700" y="48" width="175" height="70" rx="6" fill="#161b22" stroke="#238636" stroke-width="1"/>
<circle cx="718" cy="68" r="5" fill="#28c840"/>
<text x="730" y="72" font-family="monospace" font-size="11" fill="#28c840">status: available</text>
<text x="710" y="90" font-family="monospace" font-size="10" fill="#8b949e">role: Full-Time SDE</text>
<text x="710" y="107" font-family="monospace" font-size="10" fill="#8b949e">from: Jul 2026</text>

<text x="30" y="207" font-family="monospace" font-size="13" fill="#8b949e">visitor@github:~$</text>
<rect x="178" y="195" width="8" height="14" fill="#00C9A7"/>

</svg>
