<svg width="900" height="200" viewBox="0 0 900 200" role="img" xmlns="http://www.w3.org/2000/svg">

<rect width="900" height="200" fill="#0d1117" rx="12"/>

<g stroke="#1e2a38" stroke-width="0.5">
  <line x1="0" y1="40" x2="900" y2="40"/>
  <line x1="0" y1="80" x2="900" y2="80"/>
  <line x1="0" y1="120" x2="900" y2="120"/>
  <line x1="0" y1="160" x2="900" y2="160"/>
  <line x1="100" y1="0" x2="100" y2="200"/>
  <line x1="200" y1="0" x2="200" y2="200"/>
  <line x1="300" y1="0" x2="300" y2="200"/>
  <line x1="400" y1="0" x2="400" y2="200"/>
  <line x1="500" y1="0" x2="500" y2="200"/>
  <line x1="600" y1="0" x2="600" y2="200"/>
  <line x1="700" y1="0" x2="700" y2="200"/>
  <line x1="800" y1="0" x2="800" y2="200"/>
</g>

<rect x="40" y="50" width="3" height="100" fill="#00C9A7" rx="2"/>

<text x="55" y="75" font-family="monospace" font-size="13" fill="#00C9A7">// backend engineer · open to full-time SDE roles</text>
<text x="55" y="125" font-family="Arial Black, Arial" font-size="46" font-weight="900" fill="#ffffff">Harsh Narayan</text>
<text x="57" y="155" font-family="monospace" font-size="13" fill="#8b949e">Oracle · Ex-Razorpay · NIT Silchar ·</text>

<rect x="710" y="55" width="160" height="90" rx="6" fill="#161b22" stroke="#00C9A7" stroke-width="1"/>
<circle cx="728" cy="80" r="5" fill="#00C9A7"/>
<text x="740" y="84" font-family="monospace" font-size="11" fill="#00C9A7">Available</text>
<text x="720" y="105" font-family="monospace" font-size="10" fill="#8b949e">Full-Time SDE</text>
<text x="720" y="122" font-family="monospace" font-size="10" fill="#8b949e">Jul 2026 onwards</text>
<text x="720" y="139" font-family="monospace" font-size="10" fill="#58a6ff">Gurugram / Remote</text>

</svg>
